<svg xmlns="http://www.w3.org/2000/svg" width="1024" height="278" viewBox="-1.2 -1.2 151.1 41"><path d="M130.8 28c.2.4.3 1 .3 1.4 0 2.7-1.4 3.8-2.1 4.4-1.8 1.5-4.4 1.4-4.4 1.4h-1.4c-.9 0-1.9.7-1.9 1.7 0 1.1.8 1.8 2 1.8h1.3s1.8 0 3.7-.5c2-.7 4.6-2.1 6.5-5.5l7-15.6 2-4.7c.2-.3.2-.6.1-.9 0-.3-.3-.5-.6-.7-.5-.3-1.3-.3-2 0-.8.2-1.5.7-1.7 1.3l-3.4 7.3c-.6 1.2-1.3 2-2 2-.8 0-1.3-.2-2.4-2.1l-4.1-7.2a3 3 0 0 0-1.8-1.3 3 3 0 0 0-2.2 0c-.4.2-.6.5-.7.8v1l7.8 15.4m-19.5-8.8c0-1.2 1-2.2 2.3-2.2h3a3 3 0 0 0 2.2-.8c.8-.9.9-2.1.9-2.3a3 3 0 0 0-.8-2.2 3 3 0 0 0-2.3-.8h-3c-2 0-2-.5-2-1.7 0 0 0-2.5 2-3.2.7-.2 1.4-.3 2.2-.3h3.5a2.9 2.9 0 0 0 2.9-2.9c0-1.5-1.3-2.8-2.9-2.8H116a15 15 0 0 0-5.8 1.2 8.8 8.8 0 0 0-5.5 7.1c-.2 1.7-.6 2.6-2.2 2.6-.8 0-1.4.2-1.9.7-.8.9-.7 2.2-.7 2.2 0 2.7 2.5 3.2 2.6 3.2 1.2.1 2 1.1 2 2.3v9.3c0 1.1.4 2 1 2.6.7.8 1.7.8 1.8.8h1.3c.1 0 .9 0 1.6-.5.5-.4 1.2-1.2 1.2-2.9M63.2 13.3s-.2-2.7 2.7-2.7c1.6 0 2.6 1.5 4.5 1.5 2.4 0 3-1.5 6.4-1.5 3.8 0 4 1.5 6.3 1.5 2.5 0 2.9-1.5 7.2-1.5 2.3 0 4.9 1.4 4.9 4.2v14.5a2.7 2.7 0 0 1-5.4 0V17.4c0-1.3 0-4-2.3-4 0 0-5.6-.7-5.6 9.1v6.8c0 1.4-1.2 2.7-2.7 2.7a2.7 2.7 0 0 1-2.7-2.7V17.4c0-.8.1-4-2.4-4-4.8 0-5.5 5-5.5 9v6.9c0 1.4-1.3 2.7-2.7 2.7a2.7 2.7 0 0 1-2.7-2.7M41.3 4.6a16.6 16.6 0 1 0 0 33.2 16.6 16.6 0 0 0 0-33.2m0 22.5a6 6 0 0 1 0-11.8 6 6 0 0 1 0 11.8m-35.7-5 2.6 1 4 1.6a2 2 0 0 1 1.2 2.4c-.4 1.3-1.9 2.5-5.2 2C7 29 4 28.3 4 28.3c-.1 0-2-.7-3 0-.5.2-.7.5-.8 1-.5 1.7 1.3 2.3 1.3 2.3l1.9.5.5.1s4 1 7.1.9c2 0 7.1-.5 9.1-4.1.3-.5.7-2.4.5-3.6-.2-1.3-.7-2.7-3-4.2a29 29 0 0 0-4.1-1.6 38 38 0 0 1-2.2-.7c-2.9-1.2-3.4-2.3-3.4-2.8 0-.3 0-1 .6-1.6.7-.8 1.8-1.2 3.4-1.2 2.4 0 3.3.3 4.3.6l.6.2c.7.2 1.3.1 1.8-.1.5-.3.6-.9.6-1 0-.4.1-1.5-1.6-2.2-.1 0-3.7-1.4-9.3-.6-.8 0-2.3.4-3.8 1.2a5.6 5.6 0 0 0-3.2 5.2c0 1.6.8 3 2.2 4.2 1.1.8 2.1 1.2 2.2 1.2M145.6 31.8a3 3 0 0 1-3.1-3.1 3 3 0 0 1 3.1-3.2c1.9 0 3.2 1.4 3.2 3.2 0 1.8-1.4 3.1-3.2 3.1m0-5.6c-1.3 0-2.3 1-2.3 2.5 0 1.3 1 2.4 2.3 2.4 1.4 0 2.3-1 2.3-2.4s-1-2.5-2.3-2.5m.6 4-.8-1.2h-.1v1.2h-.7V27h1c.7 0 1.1.4 1.1.9s-.4.8-.7.9c.2 0 .6.7 1 1.4h-.8zm-.8-2.6h-.1v.8c.4 0 .7-.1.7-.4 0-.3-.2-.4-.6-.4" style="fill:#ffb514;fill-opacity:1;fill-rule:nonzero;stroke:none"/></svg>