<svg width="154" height="32" viewBox="0 0 154 32" fill="none" xmlns="http://www.w3.org/2000/svg">
<path fill-rule="evenodd" clip-rule="evenodd" d="M99.1292 11.6377V11.631C99.1311 11.3701 99.0911 10.4649 98.4575 9.81947C98.0155 9.369 97.3881 9.13991 96.5881 9.13991H94.1186C92.439 9.13991 92.439 8.75633 92.439 7.72833C92.439 7.70667 92.4933 5.62611 94.1438 5.03078C94.6692 4.84067 95.2528 4.74538 95.8773 4.74442H95.905H98.8141H98.858C99.8882 4.74442 100.815 4.04897 101.109 3.05225C101.174 2.83135 101.209 2.60322 101.209 2.37125C101.209 1.06314 100.153 0 98.858 0C98.8084 0 98.7593 0.000962551 98.6987 0.00577531L98.7078 0.00433148H96.2149H96.0137C95.6222 0.00818169 95.2013 0.0341706 94.7603 0.0808543C93.4378 0.220906 92.2454 0.526997 91.2128 0.989022C86.8562 2.93963 86.6593 6.91401 86.6565 6.95444L86.6455 7.017C86.4352 8.39441 86.0763 9.14087 84.7833 9.14087C84.1421 9.14087 83.6258 9.3483 83.2486 9.75835C82.5802 10.4831 82.6031 11.592 82.6046 11.6026V11.592C82.6046 13.8439 84.7251 14.2674 84.7528 14.2713C85.7497 14.3574 86.501 15.1737 86.5025 16.1641V16.1632C86.5025 16.2161 86.4886 21.2993 86.4886 23.9666C86.4886 24.9108 86.7394 25.6429 87.2343 26.1386C87.8798 26.7878 88.7008 26.7907 88.7365 26.7907H89.8722C89.9408 26.7907 90.5577 26.7806 91.1436 26.3763C91.6218 26.0457 92.192 25.3642 92.192 23.9906V16.1078C92.223 15.075 93.065 14.2674 94.109 14.2674H94.1033H94.1067H94.1114H94.1233L94.1353 14.265L94.1114 14.2674L94.0995 14.266C94.1081 14.2674 94.1233 14.2684 96.5338 14.2674C97.3219 14.2674 97.9497 14.0345 98.3993 13.5768C99.1025 12.8611 99.1302 11.8225 99.1292 11.6209C99.1292 11.6185 99.1292 11.6214 99.1278 11.6262M119.968 22.5536H119.878V23.2417H119.958C120.226 23.2417 120.447 23.1339 120.447 22.8671C120.447 22.6212 120.276 22.5536 119.968 22.5536ZM120.592 24.7099C120.235 24.0799 120.036 23.6854 119.937 23.6854H119.877V24.7099H119.296V22.1104H120.167C120.744 22.1104 121.052 22.415 121.052 22.8194C121.052 23.2418 120.693 23.4499 120.463 23.5293V23.5364C120.592 23.5364 120.953 24.1399 121.261 24.7099H120.592ZM120.166 21.4412C119.056 21.4412 118.258 22.3161 118.258 23.4423C118.258 24.5703 119.056 25.4453 120.166 25.4453C121.271 25.4453 122.069 24.5703 122.069 23.4423C122.069 22.3161 121.271 21.4412 120.166 21.4412ZM120.165 26.0465C118.624 26.0465 117.581 24.9331 117.581 23.4423C117.581 21.9539 118.634 20.8372 120.174 20.8372C121.671 20.8372 122.79 21.9539 122.79 23.4423C122.79 24.9331 121.648 26.0465 120.165 26.0465ZM4.6418 18.2788C4.67146 18.2889 5.70475 18.7107 6.79928 19.1551L10.1484 20.5185C10.9392 20.8349 11.3534 21.6772 11.1319 22.5186C10.854 23.5838 9.58344 24.5915 6.85334 24.2262C5.76646 24.0814 3.23776 23.5411 3.21288 23.5368L3.23297 23.5411C3.16696 23.5176 1.64763 22.9773 0.710489 23.4764C0.373711 23.6562 0.154136 23.9443 0.0555897 24.3364C-0.298888 25.7593 1.15729 26.2583 1.17212 26.2626C1.69308 26.4467 2.26761 26.5776 2.72924 26.6821L3.12151 26.7732C3.15452 26.7804 6.46776 27.5728 9.09454 27.5335C10.8215 27.5071 15.0183 27.1212 16.661 24.103C16.9012 23.6619 17.2394 22.1024 17.071 21.1278C16.872 19.9787 16.5285 18.8416 14.56 17.565C14.0596 17.2404 12.5025 16.7265 11.1296 16.2716C10.3991 16.03 9.70925 15.8013 9.3476 15.6551C6.93083 14.6761 6.49647 13.7941 6.45533 13.3544C6.42854 13.0889 6.51082 12.503 6.97628 11.9877C7.55368 11.3491 8.51761 11.026 9.8432 11.026C11.8328 11.026 12.6077 11.2576 13.4277 11.5025C13.5817 11.5505 13.7429 11.5979 13.9099 11.6425C14.5313 11.8127 15.0231 11.7887 15.3737 11.5706C15.7899 11.3132 15.8779 10.8635 15.9085 10.7159C15.9607 10.446 16.0238 9.52216 14.5787 8.94353C14.4557 8.89464 11.4912 7.7345 6.82798 8.38216C6.17069 8.47373 4.88577 8.72637 3.67691 9.39848C1.91217 10.3784 0.999907 11.8923 1.03196 13.7768C1.05588 15.1296 1.69116 16.3368 2.86749 17.2716C3.74962 17.9715 4.61118 18.2687 4.64945 18.2788M33.8612 22.4035C31.1507 22.4035 28.9462 20.1986 28.9462 17.4881C28.9462 14.7772 31.1507 12.5727 33.8612 12.5727C36.5722 12.5727 38.7763 14.7772 38.7763 17.4881C38.7763 20.1986 36.5722 22.4035 33.8612 22.4035ZM33.8602 3.72092C26.257 3.72092 20.0938 9.88411 20.0938 17.4881C20.0938 25.0917 26.257 31.2558 33.8602 31.2558C41.4644 31.2558 47.6286 25.0917 47.6286 17.4881C47.6286 9.88411 41.4644 3.72092 33.8602 3.72092ZM52.0952 11.1496V24.5123C52.0952 24.5137 52.0938 24.5147 52.0938 24.5166V24.5291V24.53C52.0938 25.7375 53.0405 26.7225 54.2318 26.7864C54.2726 26.7893 54.3125 26.7907 54.3547 26.7907C54.3951 26.7907 54.4354 26.7893 54.4758 26.7864C55.6589 26.7229 56.6008 25.749 56.6133 24.5521V24.53V24.5055V18.7518C56.6133 15.3922 57.2695 11.2942 61.2813 11.2942C63.3554 11.2942 63.2296 13.9224 63.2296 14.6432V24.5992H63.2329C63.269 25.8163 64.2657 26.7907 65.4901 26.7907C66.737 26.7907 67.7491 25.7783 67.7491 24.53C67.7491 24.4844 67.7482 24.4387 67.7453 24.3945V18.8906C67.7453 18.8906 67.1266 11.188 72.4536 11.298C74.3846 11.3374 74.3659 13.5438 74.3659 14.646V24.4858H74.3668C74.3668 24.5007 74.3659 24.5147 74.3659 24.53C74.3659 25.7783 75.3775 26.7907 76.6259 26.7907C77.8728 26.7907 78.8844 25.7783 78.8844 24.53C78.8844 24.4781 78.8825 24.4277 78.8782 24.3768V12.4747C78.8782 10.0555 76.7541 8.93359 74.8318 8.93359C71.2076 8.93359 70.8344 10.1579 68.7713 10.1579C66.8278 10.1579 66.6496 8.93023 63.4938 8.93023C60.7385 8.93023 60.1866 10.1583 58.1567 10.1583C56.5653 10.1583 55.7016 8.93503 54.3547 8.93503C51.9789 8.93503 52.0952 11.1496 52.0952 11.1496ZM112.691 16.1386C112.186 17.1465 111.577 17.7251 111.02 17.7251C110.371 17.7251 109.958 17.6465 109.024 16.0552L105.629 10.0956C105.378 9.61352 104.883 9.28934 104.218 9.07683C103.551 8.86291 102.863 8.88411 102.379 9.13385C102.094 9.27992 101.898 9.49808 101.815 9.76148C101.739 9.99708 101.758 10.2543 101.868 10.5107L101.869 10.5126C101.895 10.5715 107.912 22.4479 108.268 23.2042C108.437 23.5623 108.524 23.9534 108.524 24.3685C108.524 26.5422 107.316 27.4761 106.727 27.9595C105.247 29.179 103.151 29.097 103.13 29.0965L103.127 29.0956H103.124H101.98C101.264 29.0956 100.465 29.6893 100.465 30.5393C100.465 31.4473 101.073 31.9896 102.091 31.9896H103.133L103.122 31.9887C103.178 31.9934 104.513 32.0999 106.223 31.5505C107.801 31.0425 109.999 29.8542 111.509 27.0722C111.87 26.4107 114.99 19.3932 117.267 14.2694L118.971 10.4433C118.98 10.4188 119.125 9.88305 119.047 9.69457C118.948 9.45897 118.788 9.25164 118.526 9.11641C118.085 8.88788 117.47 8.91804 116.846 9.06411C116.279 9.19746 115.689 9.79069 115.511 10.1012L112.691 16.1386Z" fill="#FFB71E"/>
<path d="M126.886 18.0002V14.7102H127.81C130.162 14.7102 131.632 13.6602 131.632 11.6162C131.632 9.60016 130.176 8.53616 127.81 8.53616H125.164V18.0002H126.886ZM126.886 10.1462H127.922C128.958 10.1462 129.77 10.5382 129.77 11.6162C129.77 12.7082 128.958 13.1002 127.922 13.1002H126.886V10.1462Z" fill="#25484F"/>
<path d="M141.561 16.3902C140.875 16.3902 140.595 16.1382 140.105 15.3822L139.363 14.2342C140.469 13.7442 141.085 12.7922 141.085 11.5462C141.085 9.67016 139.531 8.53616 137.431 8.53616H134.449V18.0002H136.171V14.6122H137.333H137.585L138.649 16.2782C139.503 17.5662 140.189 18.0002 141.561 18.0002H142.233V16.3902H141.561ZM137.459 10.1462C138.551 10.1462 139.209 10.6222 139.209 11.5462C139.209 12.5122 138.677 13.0022 137.459 13.0022H136.171V10.1462H137.459Z" fill="#25484F"/>
<path d="M148.687 18.1682C151.669 18.1682 153.545 16.2782 153.545 13.2682C153.545 10.2582 151.669 8.36816 148.687 8.36816C145.691 8.36816 143.815 10.2582 143.815 13.2682C143.815 16.2782 145.691 18.1682 148.687 18.1682ZM148.687 16.5022C146.783 16.5022 145.691 15.2422 145.691 13.2682C145.691 11.2942 146.783 10.0342 148.687 10.0342C150.577 10.0342 151.669 11.2942 151.669 13.2682C151.669 15.2422 150.577 16.5022 148.687 16.5022Z" fill="#25484F"/>
</svg>
