<svg xmlns="http://www.w3.org/2000/svg" fill="none" width="1024" viewBox="0.7 0 86.6 24"><path fill="#4594D1" d="m82 15.5 2.4-6.6h-4.6l-2.3 6.6h-2.6l2.4-6.6h-4.7L70.4 15v.5h-3.7l4.8-13.3H67l-4.7 13.3h-4L63 2.2h-4.5l-4.7 13.3h-7.1c-1.1 0-1.7-.3-1.7-1l.1-.4 1-3H49l-1.7 4.5s3.3-1.3 4.4-1.8c1-.5 1.3-1.4 1.3-2.3 0-.8-.6-1.5-1.7-2-.8-.3-1.7-.4-2.8-.4h-1.8c-1.7 0-3 .4-4.3 1.1-1.3 1-2 2.1-2 3.7 0 .6.1 1.2.4 1.7h-4.3l1.4-4c.2-.5.4-1.1.4-1.5 0-.8-.8-1-1.7-1-1.2 0-2.3.4-3.3 1.2l-3.4 2.8 3.8-10.6H29l-5.4 15h2.6c.6 0 1.3-.2 1.8-.7L33 13l-1 2.7-.1 1c0 .6.5 1 1.4 1h27.3a4 4 0 0 0 1.9-.6c.3.4.8.5 1.6.5h5a4 4 0 0 0 1.9-.5c.3.4.8.5 1.4.5h1c-.6.4-1 .9-1.2 1.5a4.7 4.7 0 0 0-.5 2c0 .8.3 1.5.8 2 .6.7 1.4 1 2.4 1 1.7 0 3.1-.7 4.3-2 .8-1 1.6-2.5 2.3-4.5h3.1c1.4 0 2.3-.6 2.8-2h-5.2ZM75.2 22c-.5-.4-.7-.8-.7-1.4 0-.6.2-1.2.7-1.9.5-.6 1-1 1.6-1L75 22.2ZM22 5l1.5-2.9h-2.8c-1.2 0-1.9.5-1.9 1.6 0 .5.4 1.8 1.1 3.6A13 13 0 0 1 21 12c0 2.2-1.3 4-3.8 5a16 16 0 0 1-6.6 1.3 18 18 0 0 1-6.2-1C2 16.5.7 15 .7 13.3.7 10.3 3 9 7.7 9h6c-.2.6-.6 1.1-1.2 1.5-.6.3-1.2.5-2 .5h-1c-.9 0-1.7.1-2.4.5-.9.4-1.3 1-1.3 1.8 0 1 .6 1.7 1.8 2.3 1 .4 2 .6 3.1.6 1.4 0 2.6-.3 3.5-1 1-.6 1.6-1.6 1.6-3 0-.9-.4-2.1-1-3.8-.7-1.7-1-3-1-4C13.7 1.7 16.1.2 21 0h2c1.2 0 2.2.2 3.1.5 1.2.5 1.8 1.2 1.9 2.2 0 1-.5 1.8-1.5 2.5H22Z"/></svg>