<svg width="5000" height="5000" viewBox="0 0 1322.9 1322.9" xmlns="http://www.w3.org/2000/svg"><path style="fill:#000;stroke-width:.264583" d="m-1991.2 571.2-173.9-174.4v-493l173.9-174.4 173.9-174.4h491.4l173.9 174.4 173.8 174.4V397L-1152 571.2l-173.7 174.3H-1817.4z" transform="matrix(.99986 0 0 .99986 2232.8 511.2)"/><path style="fill:#fdbe36;stroke-width:.264583" d="m-1982 558.6-169-169V-89l169-169.2 169.2-169.1h478.4l169 169.1L-996.1-89V389.3l-169.1 169.2-169.1 169.1H-1813.1z" transform="matrix(.99986 0 0 .99986 2232.8 511.2)"/><path style="fill:#000;stroke-width:.264583" d="M-1788.7-42.8c-4-.1-13-.9-17.2-1.4-39-4.9-64.7-20.5-74.5-45.2-2-4.8-2.5-7.4-2.5-12 0-2.9.2-4 .7-6 5-19.1 31.7-36.4 81.5-53 28-9.4 57.3-17 124.5-32.5 27.9-6.4 43-10.1 54.3-13.3l3.9-1 1-2.4a68.5 68.5 0 0 1 9.1-16.1l1.3-1.2-1.1-3.4a56.7 56.7 0 0 1 .9-39 52.2 52.2 0 0 1 25.9-28.2l-13.8-48-18.1-.7c-23.2-.9-22.7-.8-23.5-1.6-1.3-1.2-.7-3.6 1-4 1-.3 42.9 1.4 43.5 1.7.4.2 1.3 1.8 2.4 4.1l11.8 24.1 10 20.4h12.3l11.7-24c8-16.2 12-24.2 12.4-24.5.4-.3 4.3-.5 20.6-1.1 25.2-1 23-1 24 0s.9 2.9-.4 3.7c-.4.2-6 .5-20.8 1l-20.5 1c-.1.2-13.7 47.4-13.7 47.8a52.2 52.2 0 0 1 24 24c4 8.2 5.7 15.7 5.7 25.1 0 7.3-1 13.6-3.3 19.4l-.8 2.2 1.3 1.2c1.7 1.5 4.7 6.3 8 13.1l2.7 5 17.8 4.6c9 2.3 20 4.9 41.7 9.8 61.9 14.3 91.5 22 119.4 31.3 50 16.6 76.6 34 81.6 53.1a31.5 31.5 0 0 1-3.5 21.6 64.5 64.5 0 0 1-30.3 29.5 85 85 0 0 1-13.5 5.6c-10.9 3.7-21.8 5.9-36.2 7.3-6 .5-24.8.8-31.7.4-27.4-1.6-53.5-7.2-68.2-14.5-4-2-5-2.7-10.3-7.1a709.4 709.4 0 0 1-72.1-66.8l-1.6 3.3-1.8 3.7c-.6.7-13.6 3-22.8 4a270.2 270.2 0 0 1-69.7-1.4c-3.8-.6-4.6-.8-5-1.3-.3-.3-1.4-2.4-2.5-4.6-2-3.9-2-4-2.5-3.6l-3.7 4.2a667.6 667.6 0 0 1-76 69c-11.4 6.8-34.5 13-58.6 15.4-11.8 1.2-24.1 1.7-34.8 1.3z" transform="matrix(.99986 0 0 .99986 2232.8 511.2)"/><path style="fill:#000;stroke-width:.264583" d="M-1567.8-18.5a234.3 234.3 0 0 1-60.3-10.1l-4.1-1.4v-.9a176.5 176.5 0 0 1 5-30 271.4 271.4 0 0 0 86.1 8.6 227.2 227.2 0 0 0 45.8-7 159.8 159.8 0 0 1 5 30.6c.1.5-.1.7-1.8 1.3a180 180 0 0 1-45.5 8.5c-6.3.5-24.2.7-30.2.4zM-1567.4 90.2c-3.9-.5-8-1.9-12-3.9-2.7-1.3-11.3-7.2-15.5-10.5a135.8 135.8 0 0 1-15.3-15 108 108 0 0 1-8.7-12.6c-.4-.5-.3-.5 2.9.3a274.4 274.4 0 0 0 105.3 2.4l3.3-.6a106.8 106.8 0 0 1-39.2 36.5c-3 1.4-5.9 2.3-9 3-2.5.5-9.3.8-11.8.4zM-1509 354c-3-.6-4.8-2.4-5.3-5.6-.2-2-3.5-185.2-3.3-187.7.3-3 1.6-5 3.9-5.8 1.5-.6 9.2-.9 26.7-1h12.6l1.3.6c.7.3 1.5 1 1.9 1.5 1.5 2 1.3-3.8 3 91.1 1.8 102.2 1.8 100.8 1.2 102.4-.8 2.4-2.7 3.6-5.9 4l-14.7.4-16.3.2-5-.1zM-1636.3 356.2c-3.5-.8-4.8-2.5-5.2-6.7-.2-1.4-1-44-1.8-94.6-1.8-100-1.7-93.6-.2-95.9.9-1.4 2.5-2 5.4-2.4 3.6-.4 34-.8 35.8-.5 4 .8 5.2 2.7 5.4 8.7l1.7 94.1c1.4 82.3 1.5 90.7 1.2 92-.6 2.1-1.5 3.3-3.3 4.1-1.4.7-1.7.7-8.6.9a914 914 0 0 1-30.4.3zM-1352.5 600.7a4.9 4.9 0 0 1-3-2.6l-.6-1-.1-51v-51l-16.3-.1c-15.8-.1-16.2-.1-17.4-.7a5 5 0 0 1-2.8-3c-.4-1-.5-2.6-.6-14.1 0-8.3 0-13.7.2-15 .4-2.7 1.2-4.1 2.7-5l1.2-.7H-1276.5l1.3.8c2.7 1.7 2.9 2.5 2.7 19.4 0 13.3 0 13.7-.6 14.9a5.2 5.2 0 0 1-2.9 2.8c-1 .5-2.3.5-17.2.6h-16.2v50.5c0 55.7 0 52.3-1.7 54-1.7 1.7-1.2 1.6-21.7 1.6-14.9 0-18.8 0-19.7-.4zM-1484.7 600.7a4.7 4.7 0 0 1-3-2.6l-.7-1.3-.1-51V495h-15.6c-9.6 0-16 0-16.7-.3-1.7-.3-3.1-1.3-3.8-2.6l-.6-1.2v-14.8c-.2-16.4-.2-16.4 1.5-18 1.8-1.8-2-1.7 58.7-1.7 36.1 0 55.5 0 56.1.3 1.5.4 2.7 1.3 3.4 2.7l.7 1.3V490.4l-.8 1.5c-.6 1.3-.9 1.6-2.2 2.3l-1.5.7h-16.2l-16.2.1-.1 51.2v51l-.7 1.2c-.4.7-1.1 1.5-1.9 1.9l-1.2.7h-19c-15.9.1-19.2 0-20.1-.3zM-1832.1 600.7a4.7 4.7 0 0 1-3-2.6l-.7-1.3-.1-67.2c0-46.5 0-67.7.2-68.6a5.6 5.6 0 0 1 2.7-3.9l1.1-.6h18.7c20.6-.1 20.3-.1 22.5 1.6.7.4 1.6 1.4 2.1 2.1.5.7 5.3 9.1 10.6 18.7s10 18 10.6 18.6l1 1.1h4l1-1c.5-.7 5.2-8.9 10.3-18.3a912 912 0 0 1 10.3-18.6c.6-.8 1.6-2 2.3-2.5 2.4-1.9 1.8-1.8 22.8-1.7h18.8l1 .6c1.5.8 2.2 1.7 2.7 3.4.3 1.1.4 9.5.4 68.3 0 58.7 0 67.1-.4 68.3a4.9 4.9 0 0 1-2.6 3.3l-1.1.6h-18.1c-20.1.1-19.8.2-21.4-1.6-1.7-1.7-1.7.2-1.7-39.7 0-21 0-36.4-.2-36.4l-6.5 11.7a65.8 65.8 0 0 1-8 13.4 8.8 8.8 0 0 1-3.1 2.2c-1.6.6-1.8.7-8.9.7-8.2 0-9-.2-11.3-2-1.8-1.4-2.6-2.7-9.3-15.2l-6-11-.1 36.7-.1 36.7-.8 1.5c-.6 1.2-1 1.7-2 2.3l-1.2.7h-17.7a137 137 0 0 1-18.8-.3zM-1622.8 619a5.3 5.3 0 0 1-3.5-2.5l-.8-1.2v-7.1c-.1-7-.1-7-.7-7.2l-4.7-.9a52 52 0 0 1-21.6-8.5 35 35 0 0 1-12-20.9l-.7-2.8v-39.8c0-37.5 0-40 .5-42.6a31 31 0 0 1 18.8-25c10.9-5.2 27-7.7 46.9-7.2 13 .3 21.7 1.4 29.9 3.8 18.4 5.2 26.8 14.9 28.4 32.4.4 4.2.4 73.5 0 77.4-1.4 14-6.9 22.3-18.8 28.3a58.6 58.6 0 0 1-20.3 5.8c-.5.1-.5.2-.6 7 0 6.8-.1 7-.7 8.3-.7 1.4-2 2.4-3.8 2.8-1.5.3-34.9.3-36.3 0z" transform="matrix(.99986 0 0 .99986 2232.8 511.2)"/><path style="fill:#fdbe36;fill-opacity:1;stroke-width:.264583" d="m-1165.3 558.7 169.1-169.1V-89l-169.1-169.2-169.1-169.1H-1813.1l-169.1 169.1L-2151.3-89V389.3l169.2 169.3 169.3 169.3h478.4z" transform="matrix(.99986 0 0 .99986 2232.8 511.2)"/><path style="fill:#fff;stroke:#fff;stroke-width:.264583" d="M-1541-69.2a191 191 0 0 0 40.8-6.6 186.2 186.2 0 0 0-12-30.4c0-.2-.8-.1-1.8 0a265.4 265.4 0 0 1-66.4 4.6 302 302 0 0 1-31.5-3.2c-1.2 1-11.2 27-10.7 27.5.4.4 11.4 3 17.5 4.1a283.6 283.6 0 0 0 64 4z" transform="matrix(.99986 0 0 .99986 2232.8 511.2)"/><path style="fill:#fff;stroke-width:.264583" d="M-1536.7 34.8c15.3-1.1 27.7-3.2 38-6.5l3.4-1 .8-2.9a127.5 127.5 0 0 0 5.1-30v-1.2l-3 .9c-38.8 11.3-94.8 10.4-136.6-2l-3.6-1 .2 3.3c.4 8 1.7 16.6 3.6 24.4 1.6 6.4 1 5.7 5.9 7.2a239.7 239.7 0 0 0 86.2 8.8z" transform="matrix(.99986 0 0 .99986 2232.8 511.2)"/><path style="fill:#000;stroke-width:.264583" d="M-1767.4-42.9c14.6-.9 27.6-2.6 39.4-5.2 17.6-3.9 29-8.2 36.4-13.9 10.2-8 33-27.8 47.3-41a604.3 604.3 0 0 0 28.2-28.8l1-1 2.2 4.4 2.2 4.4 1.6.4a268.8 268.8 0 0 0 75.8 1.6 130 130 0 0 0 20.5-3.8l3.1-6.8 2.6 2.7c15.3 16.9 37 37 65.8 61a55.8 55.8 0 0 0 16 11.1c19.9 8.8 54 14.4 83.7 13.8 41.1-1 71.5-12 87.5-32.1 3.6-4.6 7-10.6 9-16 1.7-4.5 2-5.7 1.9-10.6 0-4 0-4.6-.7-6.7a34.3 34.3 0 0 0-7.4-13c-14.5-17-45.9-32-99.4-47.4-21.2-6.2-51-13.6-92.5-23a1011 1011 0 0 1-61.3-15.1l-2.4-4.8a56.6 56.6 0 0 0-8-13l-1.3-1.2 1-2.8c3.6-10.4 4.1-22 1.4-33a52.7 52.7 0 0 0-26.1-33.8l-2-1 6.8-24 7-24 20-.7c13.5-.5 20.4-.8 20.9-1 .3-.2.9-.8 1.1-1.3l.6-1-.6-1c-.3-.7-.8-1-1.4-1.3a1132.4 1132.4 0 0 0-42.8 1.4c-.4 0-1 .4-1.4.7-.3.3-5.8 11.3-12.2 24.4l-11.6 23.8-2-.1a74.6 74.6 0 0 0-8.2 0l-1.8.1-11.7-23.9c-6.4-13.1-11.9-24.1-12.2-24.4-.7-.8 1-.6-23.6-1.6-21.2-.7-20.9-.8-21.8.6-.7 1-.6 2 .3 3 1 1-1.6.7 23 1.7l18.7.7 6.7 23.1a2321 2321 0 0 1 6.8 24c.2.8.1.9-1.6 1.8a52.7 52.7 0 0 0-27.9 48.3 53 53 0 0 0 3.1 18.5l1 2.8-1.4 1.3c-2 1.8-6 8.8-8.9 15.5l-1.2 2.8-3.3.9c-13.7 3.8-27.3 7-55.8 13.6-48 11-73.3 17.3-95 23.5-54.8 15.6-87.6 31-102.4 48.1-3.8 4.3-6 8.4-7.4 13.1-1 3.2-1.2 8.5-.6 11.9a56 56 0 0 0 15.4 26.7c15.9 15.8 42 25 76.3 26.7 4 .2 19.7.2 23.6 0z" transform="matrix(.99986 0 0 .99986 2232.8 511.2)"/><path style="fill:#000;stroke-width:.264583" d="M-1539.5-18.7c17.6-1.1 31.5-3.5 45-7.8 3.4-1 4.3-1.5 4.3-1.8a203.9 203.9 0 0 0-4.9-31.1l-3 .6a267.2 267.2 0 0 1-126.3-1.7 13 13 0 0 0-3-.7 205.8 205.8 0 0 0-5.1 31c0 .7 15.7 5.2 24.7 7 10.9 2.2 28 4.3 39 4.8 6.9.2 23.9.1 29.3-.3zM-1555.8 90c7-1.4 13-4.6 23.2-12.2a109.3 109.3 0 0 0 25.4-27.7l-1.7.3c-4.3 1-13.6 2.4-20.7 3.2a281 281 0 0 1-89.6-5.9l1.4 2.6c6.4 10.2 14.5 19.1 24 26.6 4.4 3.3 11.9 8.3 14.7 9.7 3 1.5 7.1 3 10 3.5 3.2.5 10 .5 13.3-.1zM-1477.3 353.8c5.2-.2 6-.3 7.2-.8 2.3-1 3.4-2.8 3.7-5.9.2-2.8-3-185.7-3.4-187.6-.5-3.7-2.2-5.3-5.9-5.8l-18.9.2c-18.8.3-18.9.3-20.8 1.8-1.3 1-2 2.5-2.2 4.6-.3 2.5 3 188 3.3 189.1a7 7 0 0 0 2.4 3.6c2 1.3 2.2 1.3 16 1.1 7 0 15.4-.2 18.6-.3zM-1612.3 356.1c7-.1 13.2-.3 13.8-.5a6.4 6.4 0 0 0 4-3c.7-1.3.8-1.7.8-5.5 0-2.2-.6-44.9-1.5-94.7-1.8-101-1.4-92.5-3.5-94.6a5.7 5.7 0 0 0-2.7-1.6c-1.5-.4-2.7-.4-19.5-.1-19 .3-19.7.3-21.5 1.6-.5.4-1.3 1.2-1.7 2-.7 1.2-.7 1.5-.8 5.4a15469 15469 0 0 0 3.5 186.6c.9 3 2.6 4.3 5.8 4.6 1.7.2 2.8.2 23.3-.2zM-1312.5 600.6a5.5 5.5 0 0 0 3-4.4c.2-1 .3-20 .3-51.4V495h15.8c9.8 0 16.2 0 16.8-.2a5.6 5.6 0 0 0 3.4-2.7l.7-1.2v-14.6c.1-16 0-16.6-1.4-18.2-.4-.4-1.2-1-2-1.3l-1.1-.5h-55.7c-45.8 0-55.9 0-56.7.3a5.8 5.8 0 0 0-3.2 2.8c-.6 1-.6 1.1-.6 16.2v15l.7 1.4a5 5 0 0 0 2 2.1l1.2.8h16.4l16.3.1.1 50.8v50.7l.8 1.5c.8 1.8 2 2.7 4.3 3.2l19 .1h18.6l1.3-.7zM-1444.9 600.7c.7-.3 1.5-1 2-1.4 1.5-2 1.4 1.2 1.4-54V495h15.8c9.8 0 16.2 0 16.8-.2a5.6 5.6 0 0 0 3.4-2.7l.7-1.2v-30.4l-.7-1.3c-.6-1.1-1-1.5-2.2-2.1l-1.6-.8h-55.7c-60.6 0-56.8-.1-58.6 1.5-1.9 1.6-1.9 1.5-1.9 18 0 16.4 0 15.8 1.8 17.6 1.5 1.6 1.8 1.6 19.2 1.6h15.7v49.3c0 30.3 0 50 .2 51.3.5 3.2 1.9 4.9 4.6 5.5.5.2 9.2.2 19.4.2 18.2 0 18.5 0 19.7-.6zM-1795 600.8a5.6 5.6 0 0 0 2.8-2.7l.6-1v-36.9l.2-36.8 6.2 11.5c9 16.6 8.8 16.4 18.7 16.7 7.9.2 10.6-.3 13.2-2.5 1.6-1.3 2.3-2.4 9-14.6l5.8-11 .2 36.6c0 34.6.1 36.7.6 37.7a5.3 5.3 0 0 0 3 3c1.2.4 2.7.5 19.4.5h18.1l1.3-.7a5 5 0 0 0 2.2-2l.7-1.3V460.2l-.7-1.2c-.5-1-1-1.4-2.2-2l-1.6-.7h-37.5l-1.5.6c-1.7.7-3.9 2.8-5.1 4.9l-10 18.1c-5 9.3-9.5 17.2-10 17.7-.8.8-1 .9-2.7.9-2.1 0-2.6-.3-3.6-1.8-.3-.4-4.7-8.2-9.7-17.4-5-9.2-9.7-17.5-10.4-18.5-1.3-2-2.6-3-4.5-4l-1.3-.5h-37.5l-1.6.7c-1.1.6-1.6 1-2.2 2l-.7 1.2v68.6c0 66 0 68.5.5 69.4.8 1.6 2 2.4 4 3l18 .1c15.9 0 17.2 0 18.2-.5z" transform="matrix(.99986 0 0 .99986 2232.8 511.2)"/><path style="fill:#000;stroke-width:.999999" d="M-6054.5 1713.1c-6.6 0-13.5 0-20.9.2-49.5.7-75.6 3.4-106.7 11.2-60.6 15.1-96 42.7-110 85.5a189 189 0 0 0-8 41.5c-1.3 16.4-1.3 274 0 287.6 4.5 45.3 23.6 81.3 53.6 101.4 19.6 13.1 50.3 23.9 85.6 30l9.6 1.7.4 25.6.3 25.7 2.8 5.7c3.5 7.1 8.7 10.5 17.9 11.7 3.5.5 34.7.8 69.3.7 57.8-.2 63.4-.4 67.7-2 5.6-2.1 11.2-8 12.9-13.3.7-2.3 1.4-14.1 1.7-29 .2-14 .8-25.3 1.2-25.3l12.5-2c72.2-12.6 115.3-43.9 130-94.3 6.3-22 6-11.7 6.3-174.2.2-101.3 0-150.7-.8-156.5-3.3-26.3-9.3-45-19.3-60.4-18.9-29-50.5-48.4-97.7-60.1-32.2-8-62.2-11.2-108.4-11.4zm-6 149.3c11.9 0 23 .5 27.7 1.4 19.8 3.7 30.1 12.8 32.8 28.9 1.2 7.4 1.2 208.6 0 217-1.1 7.7-4 13.8-9.4 19.3-4.8 5-9.5 7.3-19.3 9.5-5 1.2-13.5 1.7-31.4 2-26.5.4-36.5-.6-47.5-4.6a33.2 33.2 0 0 1-18.4-18.3c-2-5.7-2-6-2-116.1 0-108.6 0-110.5 2-115.9 4.2-11.3 13-18 28.4-21.4 5.7-1.2 22-1.9 37.2-1.8z" transform="matrix(.26455 0 0 .26455 2232.8 511.2)"/></svg>