<svg height="496" viewBox="0 0 209.0341701921673 39.425999999999995" width="2500" xmlns="http://www.w3.org/2000/svg"><g fill="#0d723a"><path d="M193.649 18.696h7.608l1.818-8.761h-7.614l2.004-9.693h-11.158l-5.797 28.052c-.33 1.582-.476 2.873-.434 3.987.058 1.348.57 2.584 1.558 3.694.876.991 1.846 1.7 2.872 2.102.98.372 2.172.565 3.643.565h8.678l1.737-8.396h-4.437c-1.09 0-1.92-.197-2.32-.557-.146-.129-.382-.325-.22-1.07zM7.96 0L6.046 9.281H18.12L20.044 0zM34.311 15.893l.878-3.772H22.73l-5.555 26.28h12.422l2.807-13.54h12.318l7.448 13.54h13.926l-8.601-15.133a25.605 25.605 0 0 0 3.936-2.774c1.564-1.335 3.591-4.466 4.156-7.206.754-3.664.085-6.82-1.997-9.403C61.276 1.026 56.815 0 53.709 0h-28.45l-1.923 9.281H37.027l10.177-.022c1.963 0 3.407.339 4.302 1.004.474.347.886.83.646 1.997-.216 1.033-1.018 1.89-2.448 2.614a9.17 9.17 0 0 1-4.279 1.019zM5.55 12.121L0 38.401h12.147l5.483-26.28z"/><path d="M89.022 23.6c-.485 2.329-1.447 4.161-2.85 5.438-1.367 1.243-3.146 1.84-5.417 1.84-1.903 0-3.261-.548-4.17-1.673-.916-1.14-1.152-2.672-.738-4.676.37-1.807 1.282-3.259 2.784-4.422 1.527-1.19 3.223-1.763 5.191-1.763 2.043 0 3.473.492 4.375 1.51.875 1.004 1.142 2.191.825 3.746m9.502-10.235C95.618 10.849 91.374 9.58 85.9 9.58c-4.832 0-9.26 1.143-13.134 3.375-4.487 2.569-7.227 6.121-8.153 10.584C63.48 29 64.7 33.197 68.246 36.01c2.866 2.269 7.136 3.416 12.685 3.416 5.074 0 9.476-1.106 13.083-3.316 4.01-2.428 6.513-5.891 7.419-10.307l.314-1.472c.953-4.617-.13-8.301-3.223-10.966M167.382 23.6c-.493 2.37-1.426 4.136-2.846 5.438-1.37 1.243-3.145 1.84-5.425 1.84-1.886 0-3.252-.548-4.161-1.673-.909-1.14-1.158-2.672-.736-4.676.373-1.807 1.281-3.259 2.778-4.422 1.534-1.19 3.222-1.763 5.2-1.763 2.03 0 3.467.492 4.372 1.518.878.996 1.14 2.183.818 3.738m8.752-10.235c-2.908-2.516-7.154-3.785-12.615-3.785-4.853 0-9.269 1.143-13.148 3.375-4.477 2.569-7.225 6.121-8.15 10.584-1.129 5.462.086 9.658 3.625 12.471 2.875 2.269 7.145 3.416 12.686 3.416 5.085 0 9.487-1.106 13.08-3.316 4.013-2.428 6.503-5.891 7.42-10.307l.3-1.472c.96-4.617-.12-8.301-3.198-10.966M128.309 23.6c-.475 2.329-1.435 4.161-2.842 5.438-1.375 1.243-3.14 1.84-5.418 1.84-1.895 0-3.25-.548-4.172-1.673-.202-.251-.225-.631-.21-1.518.017-1.41.86-5.047 1.25-5.993.34-.805.523-1.206 1.017-1.586 1.518-1.19 3.213-1.764 5.18-1.764 2.045 0 3.483.492 4.381 1.51.884 1.004 1.13 2.191.814 3.746m8.721-10.259c-3.004-2.492-7.235-3.761-12.584-3.761-2.051 0-4.141.251-6.037.658L120.822.005H108.97l-4.388 19.75c-.136.668-1.4 6.646-1.365 9.04a9.335 9.335 0 0 0 3.562 7.215c2.875 2.269 7.141 3.416 12.69 3.416 5.079 0 9.472-1.106 13.072-3.316 4.01-2.425 6.505-5.891 7.416-10.307l-.008.047c.087-.331 1.966-8.463-2.919-12.509M207.535 5.274a2.6 2.6 0 0 1-1.926.806c-.754 0-1.407-.264-1.934-.806a2.628 2.628 0 0 1-.8-1.93c0-.741.262-1.391.8-1.925.54-.542 1.181-.814 1.934-.814.756 0 1.395.273 1.935.814.532.533.798 1.176.798 1.925s-.266 1.392-.807 1.93m.316-4.175a3.074 3.074 0 0 0-2.242-.93 3.08 3.08 0 0 0-2.252.93c-.612.628-.936 1.372-.936 2.245 0 .87.324 1.619.936 2.239.62.637 1.374.943 2.252.943a3.01 3.01 0 0 0 2.242-.944c.629-.62.94-1.368.94-2.238 0-.873-.311-1.617-.94-2.245"/><path d="M205.734 3.167h-.961v-1.23h1.01c.203 0 .37.058.5.157.125.095.19.231.19.422s-.066.335-.186.47c-.118.118-.3.181-.553.181m.616.326c.245-.078.419-.203.534-.39.115-.184.171-.37.171-.566 0-.252-.103-.507-.311-.713-.215-.214-.529-.32-.96-.32h-1.562v3.701h.55V3.606h1.022l.718 1.599h.607z"/></g></svg>